<?xml version="1.0" standalone="no"?>
<!DOCTYPE svg PUBLIC "-//W3C//DTD SVG 20010904//EN"
 "http://www.w3.org/TR/2001/REC-SVG-20010904/DTD/svg10.dtd">
<svg version="1.0" xmlns="http://www.w3.org/2000/svg"
 width="700.000000pt" height="700.000000pt" viewBox="0 0 700.000000 700.000000"
 preserveAspectRatio="xMidYMid meet">
<metadata>
Created by potrace 1.14, written by Peter Selinger 2001-2017
</metadata>
<g transform="translate(0.000000,700.000000) scale(0.100000,-0.100000)"
fill="#000000" stroke="none">
<path d="M6915 6970 c-44 -17 -89 -34 -100 -39 -11 -5 -49 -21 -85 -36 -342
-146 -710 -377 -974 -612 l-50 -44 -21 64 c-67 196 -188 306 -348 313 -175 8
-484 -104 -797 -288 -69 -41 -197 -125 -245 -160 -63 -48 -232 -186 -275 -226
-30 -28 -57 -52 -60 -52 -3 0 -14 24 -24 53 -51 143 -183 259 -344 301 -118
31 -304 13 -487 -48 -282 -95 -534 -264 -831 -560 -296 -295 -559 -643 -839
-1110 -59 -99 -109 -186 -112 -195 -4 -9 -12 -23 -19 -31 -24 -28 -261 -505
-318 -640 -32 -74 -64 -148 -71 -165 -19 -42 -165 -414 -165 -421 0 -3 -6 -20
-14 -37 -8 -18 -22 -52 -30 -77 -8 -25 -34 -97 -56 -160 -69 -195 -164 -491
-230 -720 -12 -41 -27 -95 -35 -120 -14 -47 -94 -362 -101 -393 -2 -10 -6 -27
-9 -37 -3 -10 -8 -27 -10 -37 -2 -10 -16 -70 -30 -133 -14 -63 -28 -122 -30
-130 -8 -38 -85 -429 -90 -460 -3 -19 -8 -48 -11 -65 -2 -16 -6 -41 -9 -55 -3
-14 -7 -41 -10 -60 -3 -19 -10 -57 -15 -85 -8 -45 -31 -203 -45 -310 -3 -22
-7 -56 -10 -75 -2 -19 -7 -54 -10 -78 l-6 -42 206 0 c202 0 205 0 205 21 0 12
13 103 30 203 25 153 41 244 86 474 2 12 6 32 8 45 87 463 313 1286 476 1732
28 77 53 145 54 150 2 6 7 19 11 30 4 11 35 88 67 170 67 168 61 155 154 360
61 136 199 412 262 525 13 25 38 70 55 100 259 477 549 914 809 1216 249 290
468 474 768 644 106 61 160 57 214 -13 33 -44 62 -119 81 -216 l17 -80 -121
-163 c-66 -90 -124 -167 -129 -173 -20 -26 -155 -222 -251 -368 -454 -684
-736 -1257 -831 -1688 -29 -130 -35 -183 -34 -314 0 -187 45 -309 145 -399
138 -124 343 -115 526 22 119 89 285 272 365 402 193 314 388 723 508 1065 23
66 62 174 85 240 70 195 162 509 180 614 3 19 8 37 10 41 5 8 11 44 35 192 17
113 23 188 23 315 l-1 123 127 127 c70 71 155 154 189 185 75 70 284 244 332
278 19 13 37 27 40 30 3 4 53 41 113 83 l107 76 93 -1 c81 -1 96 -3 124 -25
39 -29 78 -92 98 -162 l16 -51 -104 -127 c-105 -130 -191 -244 -260 -343 -86
-122 -246 -369 -286 -440 -23 -41 -49 -86 -57 -100 -40 -70 -188 -370 -234
-475 -63 -146 -65 -151 -80 -195 -7 -19 -16 -44 -21 -55 -30 -68 -100 -320
-114 -405 -3 -19 -9 -59 -14 -88 -15 -95 -5 -274 19 -337 5 -14 7 -25 5 -25
-12 0 52 -100 88 -138 76 -78 204 -101 317 -56 97 38 260 175 369 309 18 22
29 34 25 26 -4 -9 -3 -12 4 -7 6 4 8 14 5 23 -4 11 -2 14 5 9 30 -18 300 443
429 734 47 107 132 323 148 380 4 14 20 52 35 85 15 33 42 101 59 150 18 50
36 101 41 115 34 94 86 332 106 480 3 25 7 56 9 70 2 14 7 102 10 195 l5 170
68 63 c271 255 603 484 967 668 83 42 151 76 152 77 2 3 12 69 18 127 3 30 10
89 15 130 12 93 20 170 17 170 -1 -1 -38 -14 -82 -30z m-1670 -1922 c-2 -7
-31 -130 -64 -273 -82 -354 -119 -475 -223 -720 -97 -226 -218 -450 -370 -680
-45 -68 -113 -133 -140 -135 -16 0 -14 51 7 185 11 73 79 286 145 450 136 342
391 829 562 1073 76 107 93 127 83 100z m-1785 -574 c-5 -44 -13 -97 -16 -119
-4 -31 -57 -303 -79 -407 -24 -114 -102 -376 -153 -513 -118 -319 -360 -762
-482 -885 -55 -56 -124 -100 -136 -88 -3 4 -1 35 5 70 6 35 13 81 17 103 4 32
34 166 69 315 64 277 225 682 388 975 76 136 389 635 395 630 2 -1 -2 -38 -8
-81z"/>
</g>
</svg>
